<?xml version="1.0" encoding="utf-8"?>
<!-- Generator: Adobe Illustrator 16.0.0, SVG Export Plug-In . SVG Version: 6.00 Build 0)  -->
<!DOCTYPE svg PUBLIC "-//W3C//DTD SVG 1.1//EN" "http://www.w3.org/Graphics/SVG/1.1/DTD/svg11.dtd">
<svg version="1.1" id="Layer_1" xmlns="http://www.w3.org/2000/svg" xmlns:xlink="http://www.w3.org/1999/xlink" x="0px" y="0px"
	 width="280.753px" height="60px" viewBox="0 0 280.753 60" enable-background="new 0 0 280.753 60" xml:space="preserve">
<g>
	<path fill="#EEC03F" d="M93.272,12.058c-0.391,0.079-0.704,0.208-0.938,0.398c-0.235,0.183-0.432,0.432-0.608,0.744
		c-0.178,0.306-0.409,0.79-0.695,1.446c-0.023,0.067-0.045,0.124-0.068,0.168l-7.254,16.787h-0.427l-7.289-16.787
		c-0.021-0.044-0.044-0.101-0.066-0.168c-0.287-0.657-0.518-1.141-0.693-1.446c-0.178-0.312-0.379-0.562-0.614-0.744
		c-0.231-0.19-0.54-0.32-0.938-0.398c-0.394-0.074-0.93-0.115-1.611-0.115v-0.688h9.134v0.688c-1.012,0-1.746,0.104-2.211,0.313
		c-0.462,0.211-0.692,0.536-0.692,0.976c0,0.331,0.111,0.736,0.331,1.215l5.602,12.833l5.543-12.833
		c0.224-0.479,0.331-0.874,0.331-1.183c0-0.461-0.231-0.797-0.692-1.008c-0.458-0.208-1.199-0.313-2.208-0.313v-0.688h7.683v0.688
		C94.21,11.943,93.671,11.984,93.272,12.058"/>
	<path fill="#EEC03F" d="M95.632,27.845c-0.227,0.479-0.335,0.878-0.335,1.184c0,0.461,0.235,0.801,0.693,1.007
		c0.465,0.205,1.198,0.312,2.211,0.312v0.692h-7.716v-0.692c0.681,0,1.217-0.041,1.615-0.116c0.394-0.078,0.715-0.208,0.957-0.393
		c0.243-0.186,0.451-0.439,0.625-0.762c0.175-0.32,0.395-0.782,0.659-1.4l0.102-0.197l7.254-16.791h0.432l7.284,16.791l0.101,0.197
		c0.264,0.618,0.483,1.08,0.662,1.4c0.176,0.323,0.384,0.576,0.626,0.762c0.242,0.185,0.555,0.315,0.938,0.393
		c0.387,0.075,0.917,0.116,1.601,0.116v0.692h-9.134v-0.692c1.009,0,1.746-0.108,2.207-0.312c0.463-0.207,0.693-0.546,0.693-1.007
		c0-0.305-0.109-0.704-0.332-1.184l-1.582-3.665h-7.979L95.632,27.845z M101.171,15.012l-3.433,7.947h6.894L101.171,15.012z"/>
	<path fill="#EEC03F" d="M116.585,31.602h-0.663v-7.258h0.663c0,0.246,0.044,0.648,0.145,1.206c0.101,0.56,0.343,1.208,0.726,1.945
		c0.383,0.737,1.008,1.385,1.864,1.947c0.855,0.56,1.977,0.843,3.365,0.843c1.184,0,2.171-0.346,2.953-1.025
		c0.781-0.681,1.173-1.548,1.173-2.606c0-0.724-0.332-1.409-0.994-2.06c-0.659-0.647-1.593-1.292-2.803-1.932l-3.164-1.613
		c-1.035-0.551-1.902-1.298-2.61-2.245c-0.703-0.943-1.053-2.011-1.053-3.199c0-1.383,0.518-2.548,1.553-3.494
		c1.031-0.949,2.341-1.422,3.923-1.422c0.878,0,1.619,0.115,2.227,0.35c0.606,0.228,1.202,0.566,1.797,1.002
		c0.507-0.414,0.823-0.92,0.957-1.516h0.662v7.261h-0.696c-0.067-0.751-0.189-1.456-0.378-2.115
		c-0.187-0.659-0.47-1.269-0.843-1.829c-0.372-0.562-0.874-1.009-1.499-1.336c-0.625-0.331-1.404-0.495-2.327-0.495
		c-0.922,0-1.687,0.28-2.289,0.841c-0.607,0.562-0.909,1.259-0.909,2.094c0,0.815,0.291,1.5,0.875,2.063
		c0.585,0.562,1.62,1.237,3.116,2.026l3.167,1.615c1.188,0.596,2.054,1.333,2.605,2.21c0.547,0.882,0.823,1.812,0.823,2.806
		c0,0.88-0.164,1.688-0.496,2.425c-0.327,0.734-0.778,1.367-1.351,1.878c-0.569,0.518-1.236,0.92-1.995,1.207
		c-0.76,0.287-1.568,0.428-2.424,0.428c-0.748,0-1.425-0.097-2.028-0.297c-0.607-0.197-1.248-0.45-1.929-0.76
		c-0.551-0.286-0.949-0.451-1.191-0.495C117.031,30.47,116.716,30.984,116.585,31.602"/>
	<path fill="#EEC03F" d="M149.516,13.741c-0.078-0.491-0.219-0.867-0.431-1.121c-0.208-0.253-0.513-0.428-0.923-0.524
		c-0.406-0.101-0.972-0.153-1.697-0.153v-0.688h7.719v0.688c-0.729,0-1.287,0.052-1.682,0.153c-0.399,0.097-0.707,0.271-0.923,0.524
		c-0.22,0.253-0.373,0.629-0.447,1.121c-0.074,0.495-0.115,1.17-0.115,2.03v7.915c0,2.484-0.748,4.423-2.245,5.823
		c-1.496,1.395-3.396,2.094-5.707,2.094c-2.286,0-4.176-0.699-5.673-2.094c-1.492-1.399-2.24-3.338-2.24-5.823v-7.915
		c0-0.882-0.041-1.562-0.115-2.045c-0.078-0.483-0.22-0.853-0.432-1.106c-0.205-0.253-0.51-0.428-0.908-0.524
		c-0.392-0.101-0.953-0.153-1.679-0.153v-0.688h8.903v0.688c-0.726,0-1.284,0.052-1.683,0.153c-0.394,0.097-0.696,0.271-0.904,0.524
		c-0.212,0.253-0.354,0.623-0.432,1.106c-0.075,0.483-0.112,1.163-0.112,2.045v8.077c0,2.07,0.525,3.631,1.582,4.689
		c1.057,1.053,2.45,1.58,4.191,1.58c1.82,0,3.291-0.527,4.399-1.58c1.11-1.058,1.667-2.619,1.667-4.689v-8.077
		C149.631,14.911,149.59,14.235,149.516,13.741"/>
	<path fill="#EEC03F" d="M173.707,15.771c0-0.882-0.038-1.562-0.115-2.045c-0.078-0.483-0.22-0.853-0.429-1.106
		c-0.208-0.253-0.513-0.428-0.907-0.524c-0.396-0.101-0.958-0.153-1.683-0.153v-0.688h7.52v0.688c-0.723,0-1.289,0.052-1.68,0.153
		c-0.398,0.097-0.707,0.271-0.926,0.524c-0.22,0.253-0.369,0.629-0.443,1.121c-0.079,0.495-0.119,1.17-0.119,2.03v15.831h-0.756
		l-13.422-16.59v11.474c0,0.86,0.033,1.538,0.112,2.032c0.077,0.491,0.227,0.875,0.446,1.139c0.22,0.258,0.528,0.445,0.923,0.542
		c0.398,0.101,0.957,0.149,1.682,0.149v0.692h-7.519v-0.692c0.726,0,1.285-0.049,1.683-0.149c0.394-0.097,0.7-0.283,0.908-0.542
		c0.209-0.264,0.354-0.64,0.428-1.12c0.075-0.488,0.112-1.169,0.112-2.051V15.771c0-0.882-0.038-1.562-0.112-2.045
		c-0.074-0.483-0.218-0.853-0.428-1.106c-0.208-0.253-0.514-0.428-0.908-0.524c-0.397-0.101-0.957-0.153-1.683-0.153v-0.688h4.65
		l12.666,15.693V15.771z"/>
	<path fill="#EEC03F" d="M181.13,30.348c0.725,0,1.283-0.049,1.678-0.149c0.395-0.097,0.7-0.283,0.908-0.542
		c0.208-0.264,0.35-0.64,0.428-1.12c0.075-0.488,0.116-1.169,0.116-2.051V15.771c0-0.882-0.041-1.562-0.116-2.045
		c-0.078-0.483-0.22-0.853-0.428-1.106c-0.208-0.253-0.513-0.428-0.908-0.524c-0.395-0.101-0.953-0.153-1.678-0.153v-0.688h8.936
		c1.865,0,3.5,0.249,4.896,0.755c1.399,0.506,2.549,1.21,3.446,2.11c0.9,0.899,1.574,1.953,2.013,3.151
		c0.44,1.196,0.66,2.488,0.66,3.877c0,1.378-0.22,2.675-0.66,3.873c-0.439,1.2-1.113,2.247-2.013,3.147
		c-0.897,0.904-2.047,1.612-3.446,2.116c-1.396,0.502-3.031,0.755-4.896,0.755h-8.936V30.348z M186.899,25.991
		c0,0.882,0.038,1.563,0.116,2.047c0.079,0.484,0.216,0.852,0.413,1.106c0.197,0.256,0.488,0.431,0.875,0.527
		c0.387,0.101,0.938,0.15,1.664,0.15h0.13c1.542,0,2.829-0.257,3.861-0.774c1.035-0.518,1.835-1.195,2.408-2.032
		c0.574-0.833,0.976-1.751,1.202-2.749c0.23-1.005,0.345-2.044,0.345-3.118c0-1.08-0.115-2.118-0.345-3.117
		c-0.227-1.002-0.628-1.925-1.202-2.774c-0.573-0.845-1.374-1.52-2.408-2.026c-1.032-0.506-2.319-0.76-3.861-0.76h-3.197V25.991z"/>
	<path fill="#EEC03F" d="M209.591,26.486c0,0.882,0.037,1.563,0.114,2.051c0.078,0.48,0.22,0.856,0.428,1.12
		c0.213,0.258,0.514,0.445,0.908,0.542c0.399,0.101,0.958,0.149,1.684,0.149v0.692h-8.903v-0.692c0.721,0,1.284-0.049,1.678-0.149
		c0.395-0.097,0.696-0.283,0.909-0.542c0.208-0.264,0.349-0.64,0.427-1.12c0.079-0.488,0.115-1.169,0.115-2.051V15.771
		c0-0.882-0.037-1.562-0.115-2.045c-0.078-0.483-0.219-0.853-0.427-1.106c-0.213-0.253-0.514-0.428-0.909-0.524
		c-0.394-0.101-0.957-0.153-1.678-0.153v-0.688h8.903v0.688c-0.726,0-1.284,0.052-1.684,0.153c-0.394,0.097-0.695,0.271-0.908,0.524
		c-0.208,0.253-0.35,0.623-0.428,1.106c-0.077,0.483-0.114,1.163-0.114,2.045v4.156h11.214v-4.156c0-0.86-0.037-1.536-0.115-2.03
		c-0.078-0.491-0.224-0.867-0.429-1.121c-0.208-0.253-0.517-0.428-0.927-0.524c-0.405-0.101-0.97-0.153-1.697-0.153v-0.688h8.941
		v0.688c-0.729,0-1.295,0.052-1.701,0.153c-0.405,0.097-0.714,0.271-0.923,0.524c-0.208,0.253-0.353,0.623-0.427,1.106
		c-0.075,0.483-0.115,1.163-0.115,2.045v10.715c0,0.882,0.041,1.563,0.115,2.051c0.074,0.48,0.22,0.856,0.427,1.12
		c0.209,0.258,0.519,0.445,0.923,0.542c0.406,0.101,0.972,0.149,1.701,0.149v0.692h-8.941v-0.692c0.727,0,1.288-0.049,1.683-0.149
		c0.394-0.097,0.707-0.283,0.923-0.542c0.22-0.264,0.369-0.648,0.447-1.139c0.079-0.495,0.115-1.172,0.115-2.032v-5.337h-11.214
		V26.486z"/>
	<path fill="#EEC03F" d="M243.036,26.158c1.011,1.188,2.043,2.156,3.097,2.903c1.057,0.748,2.069,1.179,3.037,1.287v0.692h-5.442
		l-6.532-8.673h-1.55v4.123c0,0.878,0.041,1.56,0.115,2.047c0.078,0.48,0.22,0.856,0.433,1.12c0.204,0.258,0.506,0.445,0.903,0.542
		c0.396,0.101,0.957,0.149,1.684,0.149v0.692h-8.908v-0.692c0.726,0,1.289-0.049,1.683-0.149c0.399-0.097,0.7-0.283,0.908-0.542
		c0.209-0.264,0.354-0.64,0.429-1.12c0.079-0.488,0.116-1.169,0.116-2.047V15.771c0-0.882-0.037-1.562-0.116-2.045
		c-0.074-0.483-0.219-0.853-0.429-1.106c-0.208-0.253-0.509-0.428-0.908-0.524c-0.394-0.101-0.957-0.153-1.683-0.153v-0.688h8.71
		c2.219,0,3.957,0.521,5.211,1.582c1.251,1.057,1.88,2.38,1.88,3.988c0,1.472-0.525,2.72-1.566,3.728
		c-1.042,1.01-2.479,1.614-4.307,1.815L243.036,26.158z M241.666,19.957c0.718-0.811,1.076-1.855,1.076-3.133
		c0-1.276-0.358-2.322-1.076-3.132c-0.715-0.815-1.754-1.221-3.119-1.221h-2.9v8.707h2.9
		C239.912,21.178,240.95,20.773,241.666,19.957"/>
	<path fill="#EEC03F" d="M253.785,27.845c-0.22,0.479-0.331,0.878-0.331,1.184c0,0.461,0.234,0.801,0.696,1.007
		c0.458,0.205,1.199,0.312,2.208,0.312v0.692h-7.717v-0.692c0.681,0,1.221-0.041,1.615-0.116c0.394-0.078,0.718-0.208,0.96-0.393
		c0.238-0.186,0.447-0.439,0.626-0.762c0.174-0.32,0.394-0.782,0.658-1.4l0.101-0.197l7.255-16.791h0.428l7.292,16.791l0.096,0.197
		c0.265,0.618,0.48,1.08,0.659,1.4c0.174,0.323,0.383,0.576,0.625,0.762c0.242,0.185,0.558,0.315,0.942,0.393
		c0.383,0.075,0.916,0.116,1.601,0.116v0.692h-9.139v-0.692c1.013,0,1.75-0.108,2.208-0.312c0.466-0.207,0.696-0.546,0.696-1.007
		c0-0.305-0.112-0.704-0.332-1.184l-1.582-3.665h-7.981L253.785,27.845z M259.331,15.012l-3.432,7.947h6.89L259.331,15.012z"/>
</g>
<g>
	<path fill="#EEC03F" d="M117.379,43.392h-1.095c-0.143,0-0.265,0.055-0.351,0.158c-0.074,0.088-0.115,0.208-0.115,0.333
		c0,0.244,0.16,0.491,0.466,0.491h0.075v5.57c0,0.902-0.715,1.911-1.672,1.911c-0.946,0-1.532-0.331-1.843-1.041
		c-0.052-0.119-0.148-0.21-0.271-0.256c-0.122-0.046-0.254-0.042-0.375,0.01c-0.118,0.056-0.211,0.157-0.253,0.28
		c-0.041,0.117-0.033,0.244,0.021,0.352c0.31,0.698,0.927,1.624,2.697,1.624c1.426-0.012,2.678-1.345,2.678-2.854v-5.595h0.038
		c0.312,0,0.475-0.248,0.475-0.491C117.854,43.639,117.69,43.392,117.379,43.392z"/>
	<path fill="#EEC03F" d="M131.473,43.392h-5.734c-0.312,0-0.476,0.244-0.476,0.484c0,0.241,0.165,0.485,0.476,0.485h0.075v7.457
		h-0.075c-0.312,0-0.476,0.244-0.476,0.484c0,0.24,0.165,0.484,0.476,0.484h5.734c0.307,0,0.466-0.247,0.466-0.49V51.73
		c0-0.611-0.97-0.611-0.97,0v0.088h-4.186v-3.231h3.621c0.306,0,0.466-0.247,0.466-0.49c0-0.244-0.161-0.491-0.466-0.491h-3.621
		v-3.244h4.186v0.088c0,0.611,0.97,0.611,0.97,0v-0.548c0.008-0.14-0.038-0.275-0.127-0.371
		C131.725,43.44,131.609,43.392,131.473,43.392z"/>
	<path fill="#EEC03F" d="M150.761,43.392h-1.245c-0.312,0-0.475,0.247-0.475,0.491c0,0.244,0.163,0.491,0.475,0.491h0.1l-1.52,5.954
		l-0.186,0.875l-0.221-0.87l-2.064-6.591c-0.081-0.242-0.214-0.35-0.436-0.35c-0.234,0-0.399,0.126-0.461,0.35l-2.202,6.581
		l-0.255,0.9l-0.19-0.898l-1.519-5.95h0.101c0.305,0,0.465-0.248,0.465-0.491c0-0.244-0.16-0.491-0.465-0.491h-1.258
		c-0.305,0-0.466,0.247-0.466,0.491c0,0.244,0.161,0.491,0.466,0.491h0.146l2.02,7.846c0.007,0.023,0.176,0.578,0.689,0.578
		c0.452,0,0.673-0.388,0.726-0.59l2.164-6.76l2.054,6.741c0.048,0.207,0.261,0.597,0.715,0.597c0.499,0,0.68-0.554,0.689-0.582
		l2.007-7.831h0.145c0.306,0,0.466-0.248,0.466-0.491C151.227,43.639,151.066,43.392,150.761,43.392z"/>
	<path fill="#EEC03F" d="M164.956,44.449l-0.001-0.548c0.009-0.14-0.037-0.274-0.126-0.37c-0.085-0.091-0.202-0.139-0.338-0.139
		h-5.735c-0.312,0-0.474,0.244-0.474,0.484c0,0.241,0.163,0.485,0.474,0.485h0.076v7.457h-0.076c-0.312,0-0.474,0.244-0.474,0.484
		c0,0.24,0.163,0.484,0.474,0.484h5.735c0.306,0,0.465-0.247,0.465-0.49V51.73c0-0.611-0.969-0.612-0.969,0v0.088h-4.186v-3.231
		h3.621c0.306,0,0.465-0.247,0.465-0.49c0-0.244-0.16-0.491-0.465-0.491h-3.621v-3.244h4.186v0.088
		C163.987,45.061,164.956,45.06,164.956,44.449z"/>
	<path fill="#EEC03F" d="M178.094,51.73v0.088h-3.91v-7.457h0.012c0.144,0,0.265-0.053,0.35-0.154
		c0.074-0.088,0.115-0.205,0.115-0.331c0-0.24-0.16-0.484-0.465-0.484h-1.006c-0.307,0-0.466,0.244-0.466,0.484
		c0,0.241,0.16,0.485,0.466,0.485h0.024v7.457h-0.087c-0.288,0-0.438,0.244-0.438,0.484c0,0.24,0.15,0.484,0.438,0.484h5.471
		c0.306,0,0.465-0.247,0.465-0.49V51.73C179.063,51.12,178.094,51.118,178.094,51.73z"/>
	<path fill="#EEC03F" d="M191.873,51.73v0.088h-3.91v-7.457h0.013c0.142,0,0.264-0.053,0.35-0.154
		c0.075-0.088,0.115-0.205,0.115-0.331c0-0.24-0.161-0.484-0.465-0.484h-1.007c-0.306,0-0.465,0.244-0.465,0.484
		c0,0.241,0.16,0.485,0.465,0.485h0.025v7.457h-0.087c-0.286,0-0.438,0.244-0.438,0.484c0,0.24,0.151,0.484,0.438,0.484h5.47
		c0.305,0,0.466-0.247,0.466-0.49V51.73C192.843,51.118,191.873,51.119,191.873,51.73z"/>
	<path fill="#EEC03F" d="M206.421,43.392h-5.734c-0.312,0-0.476,0.244-0.476,0.484c0,0.241,0.164,0.485,0.476,0.485h0.075v7.457
		h-0.075c-0.312,0-0.476,0.244-0.476,0.484c0,0.24,0.164,0.484,0.476,0.484h5.734c0.305,0,0.465-0.247,0.465-0.49V51.73
		c0-0.612-0.969-0.611-0.969,0v0.088h-4.187v-3.231h3.622c0.305,0,0.466-0.247,0.466-0.49c0-0.244-0.161-0.491-0.466-0.491h-3.622
		v-3.244h4.187v0.088c0,0.611,0.969,0.612,0.969,0v-0.548c0.009-0.14-0.038-0.275-0.127-0.371
		C206.674,43.44,206.557,43.392,206.421,43.392z"/>
	<path fill="#EEC03F" d="M221.283,51.818h-0.34l-1.849-3.05c1.192-0.372,1.976-1.43,1.951-2.636c-0.028-1.51-1.257-2.74-2.741-2.74
		h-3.195c-0.312,0-0.475,0.244-0.475,0.484c0,0.241,0.163,0.485,0.475,0.485h0.075v7.457h-0.138c-0.306,0-0.466,0.244-0.466,0.484
		c0,0.24,0.161,0.484,0.466,0.484h1.245c0.312,0,0.475-0.244,0.475-0.484c0-0.241-0.164-0.484-0.475-0.484h-0.138v-2.929h1.896
		l2.064,3.566c0.186,0.31,0.4,0.332,0.513,0.332c0.01,0,0.02,0,0.028,0h0.629c0.311,0,0.474-0.244,0.474-0.484
		C221.757,52.062,221.594,51.818,221.283,51.818z M216.152,47.919v-3.558h2.15c0.96,0,1.76,0.796,1.785,1.774
		c0.011,0.467-0.164,0.908-0.49,1.243c-0.34,0.348-0.8,0.54-1.295,0.54H216.152z"/>
	<path fill="#EEC03F" d="M232.208,47.47l-0.229-0.066c-0.93-0.263-1.983-0.561-1.983-1.622c0-0.944,0.889-1.509,1.748-1.509
		c0.881,0,1.911,0.385,1.911,1.471c0,0.239,0.193,0.428,0.44,0.428c0.305,0,0.441-0.253,0.441-0.504v-1.836
		c0-0.304-0.241-0.44-0.479-0.44c-0.233,0-0.466,0.137-0.466,0.443l0.006,0.287c-0.434-0.455-1.12-0.729-1.854-0.729
		c-1.295,0-2.692,0.914-2.692,2.39c0,1.293,0.929,2.111,2.923,2.576c1.257,0.293,1.893,0.891,1.893,1.774
		c0,1.063-1.068,1.697-2.101,1.697c-0.012,0-0.023,0.001-0.034,0.001c-1.153,0-1.902-0.649-1.914-1.66v-0.055
		c-0.015-0.282-0.197-0.449-0.49-0.449c-0.347,0-0.449,0.311-0.453,0.479l0.024,2.2c0,0.304,0.233,0.44,0.466,0.44
		c0.237,0,0.478-0.137,0.478-0.442l-0.008-0.447c0.62,0.59,1.311,0.889,2.057,0.889c1.421,0,2.943-1.066,2.943-2.654
		C234.836,48.771,233.975,47.9,232.208,47.47z"/>
</g>
<g>
	<path fill="#EEC03F" d="M54.974,22.063l-0.008-1.501l-9.411,0.061l0.01,1.501l0.714-0.004c-0.167,4.215-2.009,6.028-4.954,8.926
		c-0.417,0.409-0.855,0.839-1.305,1.293c-0.674,0.681-1.652,1.731-2.646,3.016c-1.01-1.271-2.001-2.31-2.683-2.983
		c-0.487-0.476-0.955-0.924-1.402-1.354c-2.972-2.838-4.829-4.615-5.048-8.786l0.754-0.005l-0.01-1.501l-9.41,0.059l0.008,1.501
		l0.769-0.005c0.273,5.899,3.316,9.382,6.686,12.703c0.276,0.271,0.616,0.579,1.009,0.931c1.927,1.729,5.08,4.564,5.41,7.989
		l-0.005,1.266l7.946,0.032l0.008-1.42c0.322-3.396,3.414-6.243,5.304-7.986c0.389-0.356,0.724-0.665,0.996-0.941
		c3.33-3.364,6.331-6.883,6.529-12.787L54.974,22.063z M41.084,33.396c0.448-0.45,0.88-0.874,1.293-1.281
		c3.013-2.962,5.226-5.144,5.402-10.004l1.723-0.011c-0.176,4.836-2.393,7.076-5.952,10.671l-0.479,0.48
		c-1.035,1.036-2.626,2.627-3.962,4.549c-0.255-0.41-0.522-0.808-0.794-1.192C39.418,35.137,40.511,33.976,41.084,33.396z
		 M37.401,40.896c-0.236-0.561-0.516-1.107-0.826-1.635c0.256-0.46,0.531-0.909,0.815-1.341c0.285,0.421,0.561,0.857,0.819,1.306
		C37.905,39.767,37.63,40.324,37.401,40.896z M39.049,40.894c0.396,0.924,0.679,1.869,0.782,2.802l-1.612-0.007
		C38.321,42.743,38.625,41.802,39.049,40.894z M36.63,43.683l-1.602-0.007c0.096-0.915,0.363-1.845,0.739-2.754
		C36.201,41.814,36.515,42.742,36.63,43.683z M32.253,32.105c0.442,0.422,0.905,0.864,1.385,1.339
		c0.582,0.572,1.688,1.719,2.811,3.175c-0.273,0.396-0.541,0.808-0.796,1.23c-1.361-1.891-2.97-3.454-4.018-4.472
		c-0.143-0.139-0.276-0.266-0.391-0.381l-0.152-0.149c-3.604-3.55-5.846-5.762-6.082-10.595l1.729-0.011
		C26.976,27.062,29.213,29.201,32.253,32.105z M29.05,34.798c-0.38-0.342-0.706-0.635-0.959-0.883
		c-3.84-3.781-6.009-6.82-6.24-11.643l1.656-0.01c0.255,5.47,2.914,8.088,6.532,11.655l0.153,0.147
		c0.119,0.116,0.252,0.247,0.398,0.389c1.111,1.08,2.902,2.819,4.254,4.864c-0.259,0.525-0.492,1.061-0.689,1.604
		C32.932,38.288,30.617,36.207,29.05,34.798z M46.639,33.8c-0.248,0.25-0.571,0.547-0.945,0.893
		c-1.55,1.427-3.839,3.537-5.032,6.187c-0.205-0.545-0.447-1.082-0.715-1.606c1.356-2.131,3.163-3.939,4.187-4.962l0.485-0.486
		c3.575-3.612,6.199-6.265,6.385-11.737l1.729-0.011C52.562,26.904,50.431,29.971,46.639,33.8z"/>
	<g>
		<path fill="#EEC03F" d="M37.273,58.022c-15.449,0-28.02-12.571-28.02-28.023c0-15.449,12.57-28.022,28.02-28.022
			C52.727,1.978,65.295,14.55,65.295,30C65.295,45.452,52.727,58.022,37.273,58.022z M37.273,3.778
			c-14.458,0-26.22,11.764-26.22,26.222c0,14.458,11.763,26.225,26.22,26.225c14.46,0,26.223-11.766,26.223-26.225
			C63.496,15.542,51.733,3.778,37.273,3.778z"/>
	</g>
</g>
</svg>
